Coordinates
version=1
nRows=14
nColumns=36
inDegrees=yes

Units are S.I. units (second, meters, Newtons, ...)
If the header above contains a line with 'inDegrees', this indicates whether rotational values are in degrees (yes) or radians (no).

endheader
time	pelvis_tilt	pelvis_list	pelvis_rotation	pelvis_tx	pelvis_ty	pelvis_tz	hip_flexion_r	hip_adduction_r	hip_rotation_r	knee_angle_r	knee_angle_r_beta	ankle_angle_r	subtalar_angle_r	mtp_angle_r	hip_flexion_l	hip_adduction_l	hip_rotation_l	knee_angle_l	knee_angle_l_beta	ankle_angle_l	subtalar_angle_l	mtp_angle_l	lumbar_extension	lumbar_bending	lumbar_rotation	arm_flex_r	arm_add_r	arm_rot_r	elbow_flex_r	pro_sup_r	arm_flex_l	arm_add_l	arm_rot_l	elbow_flex_l	pro_sup_l
      9.96000000	    -27.05951259	     -2.28681207	     -0.31932583	     -0.33731662	      0.78950942	     -0.66020812	     79.58696287	    -13.83250871	     -5.36954909	     75.36998369	      1.31545437	     26.25127901	     -1.99988790	     -7.49999987	     82.69642388	    -16.48539085	      0.21465971	     77.15597725	      1.34662584	     24.30378276	     11.64784527	     -7.49999987	    -20.81156244	      2.00476037	      1.18742370	     56.62593487	    -13.57276344	     14.55843474	    123.01942924	    102.57059710	     58.00576801	    -11.38938419	     25.13881421	    120.14576309	    102.74251814
      9.97000000	    -27.00529983	     -2.32665338	     -0.59101778	     -0.33954449	      0.78343973	     -0.65921792	     80.44951612	    -13.58064673	     -5.15370381	     76.47630102	      1.33476325	     26.56748179	     -1.96057545	     -7.49999987	     83.59170621	    -16.90041631	      0.48649781	     78.32057836	      1.36695196	     24.54882728	     11.67472778	     -7.49999987	    -21.42441099	      1.89538115	      1.44615869	     57.60060382	    -13.45693238	     14.61405844	    122.85483012	    102.52754356	     59.01200748	    -11.38302131	     25.13777682	    120.10057804	    102.76994458
      9.98000000	    -26.70445799	     -2.33308187	     -0.89221428	     -0.34162465	      0.77812257	     -0.65822203	     81.00968580	    -13.29838669	     -4.92038966	     77.51416076	      1.35287732	     26.98683660	     -1.78501342	     -7.49999987	     84.14817056	    -17.38529519	      0.67642989	     79.41192826	      1.38599961	     25.01969300	     12.15704628	     -7.49999987	    -22.38216735	      1.73352877	      1.80741263	     58.65852929	    -13.37364270	     14.56684867	    122.78569705	    102.43849493	     60.14781927	    -11.31453524	     25.14549372	    120.00145937	    102.86458806
      9.99000000	    -26.56482727	     -2.26953848	     -1.01603237	     -0.34383910	      0.77262527	     -0.65789531	     81.75819355	    -13.29847200	     -4.70895437	     78.52172643	      1.37046266	     27.07492775	     -1.86593460	     -7.49999987	     84.83833293	    -17.54271129	      0.87535537	     80.40308920	      1.40329864	     25.11152851	     12.13008143	     -7.49999987	    -23.13501594	      1.59774486	      1.94250145	     59.66029517	    -13.21513310	     14.44014927	    122.74671342	    102.42110659	     61.13591680	    -11.19080650	     24.95553209	    119.96253558	    102.86063167
     10.00000000	    -26.27827122	     -2.30146335	     -1.27228434	     -0.34574075	      0.76682932	     -0.65720947	     82.35925769	    -13.07703511	     -4.49901941	     79.64727429	      1.39010718	     27.32294430	     -1.91698309	     -7.49999987	     85.50104757	    -18.00369422	      1.06093355	     81.60998745	      1.42436298	     25.39789590	     12.24375114	     -7.49999987	    -23.92305823	      1.48007438	      2.22735564	     60.55515855	    -13.19500474	     14.54952762	    122.63538678	    102.37939726	     62.08743385	    -11.22692925	     25.06538543	    119.86174540	    102.89457024
     10.01000000	    -26.44801965	     -2.57149509	     -1.67386265	     -0.34800581	      0.76000313	     -0.65600632	     83.35418588	    -12.56501982	     -4.50262904	     80.63586279	      1.40736130	     27.61713068	     -1.99043306	     -7.49999987	     86.80253447	    -18.60849438	      1.68289794	     82.82793116	      1.44562011	     25.76690212	     12.69149275	     -7.49999987	    -24.15044028	      1.55006265	      2.72971986	     61.31737376	    -13.16893315	     14.56268001	    122.61007479	    102.28759471	     62.91123621	    -11.18090423	     25.11304113	    119.78204284	    102.93837946
     10.02000000	    -26.56376815	     -2.70041969	     -1.97599917	     -0.35022045	      0.75321870	     -0.65508829	     84.37691195	    -12.24060736	     -4.39624569	     81.71033657	      1.42611441	     27.75641041	     -2.11034570	     -7.49999987	     87.98652390	    -19.05226925	      2.13491540	     83.99678918	      1.46602053	     25.97346454	     12.81749625	     -7.49999987	    -24.39646061	      1.52186585	      3.06759348	     62.04255959	    -13.11633826	     14.56267907	    122.55070866	    102.23856081	     63.67991014	    -11.18071668	     25.08511408	    119.74007761	    102.94439551
     10.03000000	    -26.52914694	     -2.66544125	     -2.06881048	     -0.35241915	      0.74709984	     -0.65512439	     85.25223953	    -12.26551004	     -4.18736864	     82.72298756	      1.44378850	     27.83664393	     -2.20156265	     -7.49999987	     88.83361206	    -19.11613222	      2.42011751	     84.99230831	      1.48339562	     26.10177609	     12.82920898	     -7.49999987	    -24.88191476	      1.44908624	      3.15747376	     62.88815762	    -13.04332786	     14.51000752	    122.51163615	    102.21363422	     64.52340395	    -11.08752593	     24.94433724	    119.69945077	    102.93379287
     10.04000000	    -26.39359541	     -2.55431932	     -2.08106294	     -0.35442013	      0.74136090	     -0.65563205	     86.02416557	    -12.43553459	     -3.91192335	     83.73670165	      1.46148115	     27.91611153	     -2.27157120	     -7.49999987	     89.52292964	    -19.08410178	      2.55995450	     85.98993624	      1.50080751	     26.23973900	     12.82593915	     -7.49999987	    -25.44151140	      1.36669563	      3.15499571	     63.68762782	    -13.00227697	     14.52705156	    122.45859863	    102.18897788	     65.26008662	    -11.01599043	     24.88585688	    119.64400616	    102.92789842
     10.05000000	    -26.12629192	     -2.26853727	     -2.06270366	     -0.35635531	      0.73582234	     -0.65596678	     86.76757362	    -12.67572986	     -3.45828728	     84.85454885	      1.48099126	     28.09163491	     -2.18843576	     -7.49999987	     89.94321700	    -19.01952116	      2.47527479	     86.92883980	      1.51719447	     26.56691625	     12.88222563	     -7.49999987	    -26.11774742	      1.09582346	      3.03469860	     64.52024971	    -13.03283139	     14.78326950	    122.32693021	    102.12139906	     66.08774908	    -11.15004917	     25.05968697	    119.56542033	    102.94505486
     10.06000000	    -26.08431908	     -2.22370647	     -2.19468923	     -0.35861853	      0.72980609	     -0.65561251	     87.62911701	    -12.58706277	     -3.20003767	     85.82086359	      1.49785664	     28.19268496	     -2.23787768	     -7.49999987	     90.75920246	    -19.12520453	      2.76761178	     87.84291223	      1.53314804	     26.68401974	     12.84879141	     -7.49999987	    -26.57457239	      0.97536310	      3.14047198	     65.35329740	    -12.92010733	     14.66291476	    122.29332692	    102.09903318	     66.88021507	    -11.08806874	     24.92050742	    119.56819399	    102.93825850
     10.07000000	    -26.05692198	     -2.20676411	     -2.33706697	     -0.36069175	      0.72356713	     -0.65515713	     88.51218237	    -12.49961210	     -3.01424821	     86.82792509	      1.51543318	     28.29614545	     -2.29548272	     -7.49999987	     91.64383137	    -19.28317734	      3.07814258	     88.85249900	      1.55076866	     26.82070045	     12.81798861	     -7.49999987	    -26.91184590	      0.85714327	      3.24776184	     65.99729038	    -12.85132435	     14.66408115	    122.23176308	    102.07899912	     67.55849417	    -11.06802727	     24.85143762	    119.55152482	    102.93128898
     10.08000000	    -26.13574963	     -2.08519269	     -2.39920694	     -0.36265474	      0.71738985	     -0.65516205	     89.51333202	    -12.57292685	     -2.74411388	     87.80020148	      1.53240260	     28.49503255	     -2.19498384	     -7.49999987	     92.55861829	    -19.33487196	      3.21321822	     89.84088733	      1.56801929	     27.16104989	     12.93809135	     -7.49999987	    -27.01672097	      0.72583231	      3.22489393	     66.48961534	    -12.88209517	     15.02985599	    122.04687695	    101.98210323	     68.07483581	    -11.22469191	     25.07355822	    119.43332221	    102.92223612
     10.09000000	    -25.97054934	     -1.94514434	     -2.38962466	     -0.36471352	      0.71176858	     -0.65533448	     90.25286007	    -12.72778192	     -2.46380694	     88.73492851	      1.54871666	     28.57066983	     -2.23774186	     -7.49999987	     93.19040010	    -19.28804468	      3.32318913	     90.77489521	      1.58432080	     27.25784204	     12.91922140	     -7.49999987	    -27.49994643	      0.59981831	      3.17625959	     67.15217389	    -12.81264936	     14.98786378	    122.01680204	    101.95027899	     68.74835077	    -11.21262062	     24.96587811	    119.36594184	    102.90598047
